<svg width="41" height="47" viewBox="0 0 41 47" fill="none" xmlns="http://www.w3.org/2000/svg">
<path d="M33.4 37.7V35L30.7 32.4L30.1 30.1L30.9 28V25.7L28.1 23.7L29.7 22.1V20.5L31.8 19.6L33.5 21.3L36.1 20.9L37.9 17.5L36.8 13L39.8 10L40.9 7.29999L39.1 4.60001L38.9 2.89999H35.6L34.5 4H32.7L31.8 2.79999H29.6V1L28.6 0L27.6 1.29999L26.7 3.5L22 4.10001L22.1 6.10001L20.3 5.79999L18.5 7.60001L19 10.4L17.1 11.5L14.3 14.3L11.3 11L9.3 8.79999L7.1 9.70001L4.7 8.70001L1.9 10L0 12L1.5 12.5L3 14L5.2 14.5L6.7 15.6L6.2 17.9L4 17L1.1 16.6L0.700001 18.2L0.599998 19.5L2 20.9L3.4 20L7.8 24.6L6.4 25L6.8 27L5.1 28.4L6.1 29.4L7.5 31.6L8.9 32.2L9.9 33.5L8.7 34.7L8.9 37.3H10.3L11.2 38.3L12.8 37L14 37.9H16.3L17.2 37V35.8H18.7L19.4 37.6V39.3L20.6 40.5L22.2 40.9L22.7 43.1L23.1 44.7L24.1 45.7L25.5 46.2L26.1 45.6L27.6 46L30.3 43.2H33L35.6 41.3L36.8 38.7V36.8L34.9 37.8L33.4 37.7Z" fill="black" fill-opacity="0.11"/>
</svg>
