<svg width="49" height="32" viewBox="0 0 49 32" fill="none" xmlns="http://www.w3.org/2000/svg">
<path d="M0.900024 16.1V13.8L2.30003 12.4L4.40002 12L6.00002 10.4L8.60002 10L11.4 9.10001L14.7 8.70001L16.3 7.10001L17 4.39999L18.4 3L20.2 4.79999H22.8L23.8 2.20001H26.4L29.4 2.89999L33.3 1.89999L34.7 0.5H36.9L37.8 2.60001L39.2 4H41.6L42.5 4.89999L45.2 6.89999L48.5 10.2L46.5 12.2L44.9 13.8L42.2 12.2L40.1 12.6L38.6 14.1L36.8 16.7L33.4 14.6L31.8 16.2L29.2 16.1L29.4 18.9L28.1 20.2L29.3 22.4L25.6 24.5V27.6L23.3 29.6L22.2 31.4H20.9L20 30.5L20.3 29L18.2 29.1L17.6 29.7L14.6 29.8L13.6 31.3L11.5 30.7L10.9 28.6L9.00002 27V24.6L7.80003 23.4L7.20002 21.6H4.90002L3.50002 20.2L3.00002 19V17.8L0.900024 16.1Z" fill="black" fill-opacity="0.11"/>
</svg>
