<svg width="31" height="27" viewBox="0 0 31 27" fill="none" xmlns="http://www.w3.org/2000/svg">
<path d="M30.9 9.20001L30 7.10001L30.6 5.5L27.5 2.79999H25.5L24 4.29999L20.7 1L19 3.70001L16.6 4.79999L15.5 5.89999L13.6 3.29999L10.9 2.20001L9.69998 3.39999L7.39998 0.899994L5.79999 2.5L3.59999 2L1.89998 3.70001V6.60001L2.99998 7.70001L2.59999 9.70001L0.299988 10L1.49998 12.3V14.6L4.09999 15.4L4.89998 18.8L7.19998 21.1L6.69998 23.8L8.49998 25.6L9.39998 27H13.9L15.2 24.4L17.6 22.7L19 23.1L19.8 21.4L23.3 20.8L25 16.8L27.9 15.2L30.1 13L30.9 9.20001Z" fill="black" fill-opacity="0.11"/>
</svg>
