<svg width="58" height="67" viewBox="0 0 58 67" fill="none" xmlns="http://www.w3.org/2000/svg">
<path d="M43.8 63.8H41.1L38.1 66.1L36.4 63.2L35.1 63.7L33.2 62.9H31.5L29.5 62L26.2 64.2L24.9 62.9L23.5 61.5L21.7 60.5L20.1 62.1L18.4 60.4L16.7 60.2L16.3 59.2L14 58.4L13.3 57.1L11.2 55.7L9.5 56.4L7.89999 58L6.39999 55.8H4.60001L1.7 53.7L0.100006 51.4L1.8 49.6L2.8 48.6V46.4L3.7 44.7L4.5 45.5H7L9.10001 44.5L9.7 42.1L11 39.9H12.7L14.2 42.2L15.2 41.2L16.6 39.8L15.6 38.8L15.5 37.6L17.8 36.1L20 36.6L21.6 35.3L23.2 33.7L21.8 32.3V31.4L23.1 30.1L24 27.2L22.4 24.6V21.4L24.5 19.6H26.7L28.4 17.9L30.3 15L32.9 12.7L34.3 9.20001V6.60001L36.9 5.29999V3.29999L37.6 1.5L38.8 0.299988L40.6 1.39999V3L41.6 4L42.7 4.79999L44.4 6.5L47.4 9.5L49.3 12.9L50.8 14.4V17.8L49.5 19.5L50.2 23.4L49.4 26.6L51 28.2V30.7L49.5 32.2L50 35.1L52.1 36.2L53.6 38L53.7 40H55.2L56.7 41.5L55.9 43V45.9L57.3 47.3L56.6 49.7L57.2 51.4V53.5L54.3 55L52.6 54.3L51.1 55.8L49.2 55.3L47 57.5L47.5 60.3L46.5 61.3L47.2 63.6L45.6 64.8L43.8 63.8Z" fill="black" fill-opacity="0.11"/>
</svg>
