<svg width="33" height="41" viewBox="0 0 33 41" fill="none" xmlns="http://www.w3.org/2000/svg">
<path d="M32.8 19.6L31.8 18.3L30.4 17.7L29 15.5L28 14.5L29.7 13.1L29.3 11.1L30.7 10.7L29.7 9.70001L26.3 6.10001L24.8 6.89999L23.5 5.60001L23.6 4.29999L24 2.70001L22.2 1.89999L21.1 3L19.6 1.60001L18.2 0.600006L16.7 0.299988L16.2 1.89999L17.2 3.79999L16.8 7L14.9 6.39999H13.4L10.5 6.5L8.30002 7.39999L7.40002 9.29999L5.50002 8.70001L3.50002 6.20001L2.00002 6.5L0.600025 7.89999L1.20003 10.4L0.400024 12.7L1.40002 14.7L2.90002 16.1L2.60003 19.9L3.90002 21.8L4.90002 24L5.40002 28.3L5.00002 34.1L6.00002 37.1L7.60003 36.8L8.90002 38.6L9.90002 39.9L11.3 40.2L12.8 38.7L14.6 38.4L15.9 37.1H17.2L17.9 38.6L19 40.2H21.5L23.4 37.8L24.1 36.4L23.6 34.6L24.9 34.2L27 32.6L25.8 31.4L26.8 29.7L26 28.2L25 27.4L26 25.9V24.4L27 23.3L28 23.6L28.7 24.6L30.5 24.4L31.6 23.3L31.4 20.7L32.8 19.6ZM19.6 26.5V29.3L18.9 30.7L18.4 29L17.2 29.5L16.1 30.6L14.8 32.5L13.4 33.9L12.5 34.7V35.7L11.2 35.9L10.6 36.5L9.90002 35.2L8.00002 32.8L9.10003 31.7L10.1 32.2H12.9L13.2 31.2L12.7 30V27.9H13.9L14.7 26.4L16.1 26.5L16.9 25.7L16.2 24L14.8 23.1L14.4 23.6H13L12.1 22.6L11.1 21.6L10.4 20.9L9.80002 19.8V18.6L10.5 18.3L11.4 19.2L12 19.8L12.8 21L14.4 21.5L15.1 21.2L16.7 21.7L17.1 23.1L18.2 23.7L19 24.5L19.9 25.1L19.6 26.5Z" fill="black" fill-opacity="0.11"/>
</svg>
