<svg xmlns="http://www.w3.org/2000/svg" width="16" height="16" viewBox="0 0 16 16" version="1.1"><path d="M10.385 14.087c.364-.56.728-1.28.99-2.203.603.232 1.018.509 1.272.727a6.545 6.545 0 01-2.29 1.476h.028zm-7.04-1.483a4.85 4.85 0 011.28-.728c.27.931.619 1.651.99 2.211a6.56 6.56 0 01-2.255-1.483h-.015zm8.51-5.331a14.618 14.618 0 00-.197-1.935c.8-.29 1.382-.64 1.79-.96a6.51 6.51 0 011.025 2.895h-2.618zm-7.179-3.36a4.75 4.75 0 01-1.185-.64 6.56 6.56 0 012.124-1.36 7.909 7.909 0 00-.946 2h.007zm5.71-2c.79.31 1.51.772 2.123 1.36-.269.203-.654.436-1.185.64a7.665 7.665 0 00-.946-2h.007zm-.146 3.782c.073.48.145.996.16 1.578H5.6a13.77 13.77 0 01.145-1.578c1.484.267 3.004.267 4.488 0h.007zM8 4.436a12.13 12.13 0 01-1.913-.145C6.67 2.5 7.571 1.78 8 1.527c.415.255 1.324.982 1.905 2.764-.545.087-1.178.145-1.905.145zm-5.455-.058c.415.32.997.677 1.797.96a14.71 14.71 0 00-.197 1.935H1.498a6.504 6.504 0 011.055-2.895h-.008zm-1.04 4.35h2.64c.03.625.073 1.2.16 1.723-.67.23-1.294.575-1.847 1.018a6.487 6.487 0 01-.96-2.742h.007zM8 9.89c-.873 0-1.622.073-2.276.189-.064-.449-.105-.9-.124-1.353h4.8c-.022.488-.058.946-.116 1.353A12.314 12.314 0 008 9.884v.007zm0 4.582c-.436-.262-1.396-1.04-1.978-2.982A11.273 11.273 0 018 11.345c.764 0 1.418.051 1.985.146-.581 1.964-1.541 2.72-1.978 2.982H8zm5.542-3.011a6.11 6.11 0 00-1.847-1.018c.072-.51.145-1.091.16-1.717h2.647a6.487 6.487 0 01-.96 2.735zM8 0a8 8 0 100 16A8 8 0 008 0z" fill="#000" stroke="none" stroke-width="1" fill-rule="evenodd"/></svg>
