<svg xmlns="http://www.w3.org/2000/svg" width="16" height="16" viewBox="0 0 16 16" fill="none"><path fill-rule="evenodd" clip-rule="evenodd" d="M.89 7.002c0-3.866 3.184-7 7.111-7 3.927 0 7.111 3.135 7.111 7 0 2.755-1.615 5.137-3.964 6.28-1.535.785-2.434 1.605-2.748 2.46-.057.157-.232.262-.399.262s-.344-.105-.401-.262c-.314-.855-1.21-1.675-2.746-2.46C2.506 12.138.89 9.756.89 7.002zm7.111 2c1.122 0 2.032-.895 2.032-2s-.91-2-2.032-2c-1.122 0-2.032.896-2.032 2 0 1.106.91 2 2.032 2z" fill="#000"/></svg>
