<svg width="38" height="59" viewBox="0 0 38 59" fill="none" xmlns="http://www.w3.org/2000/svg">
<path d="M27.6 53.7L25.5 55.8L22 56.8L19 58.4L17.6 56.4L14.9 57.7H12.7L13.5 54.3L16.5 52.9V51.1H14L11.7 49.7L10.3 51.1L7.79999 50.3L8.60001 47.3L6.79999 45.5L4.29999 47L1.5 46.2L0.799988 44L2.39999 42.4V40L3 38.2L2 35L0.100006 34.1V32.6L0.799988 31.1L2.10001 29.8V28.1L3.10001 27.9L4.39999 26.6L4.89999 25.3V23.1L8.10001 19.9L10.5 19.5L11.4 18.6V17L9.5 16L8.89999 14.5L7.70001 13.3L6 12.4V11L8 10L7.10001 7.39999L7.29999 5.39999L9.10001 3.39999L10 1.89999L11.9 0.600006L13.9 2.60001L12.7 3.79999V5.29999L14.4 5.89999L16.6 6.60001L18 7.29999L19.6 8.29999H22.2L23.1 7.10001L25.3 8.20001L27.2 8.79999H30.2L32.7 7.60001L34.7 5.60001L35.8 4L36.2 5.20001L35.5 6.79999L34.7 8.5V11.1L36.2 12.6L35.8 15.8L37.2 18.7L38 20.9V24.1V27L36 29L36.4 30.4V32.3L35.4 33.3L33.6 32.6L32 33.3L29.6 36.1L28.2 39.6L28.8 44.1V46.7L30.1 48V49.5L28.7 50.9L27.6 53.7Z" fill="black" fill-opacity="0.11"/>
</svg>
