<svg width="26" height="32" viewBox="0 0 26 32" fill="none" xmlns="http://www.w3.org/2000/svg">
<path d="M23.2 21.6L22.6 20.4V18.8L21.4 18.3L20.8 16.6L22.2 15.5L22.1 13.8L23.1 12.8L23.6 11.2L25 10.5C25 10.5 24.5 9.09999 24.6 8.89999C24.7 8.69999 25.5 7.79999 25.5 7.79999L23.9 7.29999L22.2 6.29999H20.1L18.8 5H16.8L15.2 4.10001L14.1 3.39999H12.2L12 2L11.3 1.89999V0.299988L9.3 1.10001L8.3 2.5H6.8L6 3.5L5.4 5.60001L3.1 6.60001L1.4 8.29999L0.5 9.70001L2.3 10.2L3.1 11.8L4.4 13.2H6.5L7.3 14.7L8.1 16.1L6.5 18.8V20.7L7.6 22.5L9.2 22.8V24.2L8.7 25.8L9.2 27.4L8.6 29.5L8.8 31.2L10.7 30.9L11 29.6L12.6 29.3L13.1 29.8L15.4 29.7L16.1 29L18.1 29.4L19.3 29.8L20.6 29.5L21.2 28.9L22.7 29H24.2V27.2L25 26.8L25.4 25.5L25.6 23.1L24.6 22.1L23.2 21.6ZM16.9 15.2L16.1 16.3L16.4 17.6H14.7L14.2 17.1L13.7 16.6L12.8 17.5L11.5 17.6L12 16.2V15.1V13.8L12.9 13.9L13.7 12.7L13.4 12L14.2 11.3L15.3 11V11.8L15.7 12.6V12.8L16.9 13.3L17.8 14.2L16.9 15.2Z" fill="black" fill-opacity="0.11"/>
</svg>
