<svg width="39" height="41" viewBox="0 0 39 41" fill="none" xmlns="http://www.w3.org/2000/svg">
<path d="M14.3 0.100006H25.9V3.8L27.3 8.5L32.1 22.3L35.1 23.7L36.9 27.1L38.3 32.4L36.5 36.3L34.9 38.4L33.3 38.6L32.5 40L30.1 39.6L28.7 41L27.7 37.2L26.7 36.2L25.2 35.7L26 34.1V32.6L24.4 31.9L24.2 30.4L22.4 30.3L21.3 31.4L19.9 29.7L20.3 26.4L19.2 26.1L17.9 24.8L16.7 25.8L15.4 26.1L13.4 25.3L11.4 25.1H8.50002L7.60002 23.3L6.50002 23.8L5.60002 24.7L3.90002 24.5L3.40002 22L4.10002 19.7L3.30003 17.9L3.20002 16.1L1.60002 14.5L2.40002 12.8L0.900024 11L3.40002 9.5L6.80003 10.3L7.30003 8.39999L8.40002 7.3L10.6 8.3L12.4 10.2L15.2 11.1L16.2 13.4L15.8 13.8V14.5L15.2 16.8L16.1 16.6L17.2 17.4L17.7 17H18.2L19.3 16.5V15.5L19.9 14.8V13.8L19.6 13.4L18.7 14.4L18.4 10.7L16.1 8.7V4.39999L18.1 3.89999L18.7 3.3L15.9 2.2L14.3 0.100006Z" fill="black" fill-opacity="0.11"/>
</svg>
