<svg width="32" height="28" viewBox="0 0 32 28" fill="none" xmlns="http://www.w3.org/2000/svg">
<path d="M9.15525 25.9129L9.7695 23.4833L8.32376 22.6897L9.26953 21.5212L7.65529 20.0264L8.21247 17.9529L6.5466 16.9555L4.71225 15.2569L5.59551 14.303L4.88084 12.2784L3.60899 12.3273L2.61976 12.3653L2.70678 10.9467L1.11969 10.1585L1.5627 8.79698L0.168602 7.50607L0.103448 5.81027L1.90797 4.89175L1.82651 2.772L3.61475 1.42954L5.6883 1.98674L7.83797 0.842669L9.18585 2.77222L11.3056 2.69076L12.7433 1.43255L15.8006 1.81039L17.6377 1.73978L18.6242 3.47097L20.7439 3.3895L23.1083 2.30796L24.8258 2.80803L26.9456 2.72657L29.3235 3.83816L31.9106 4.87094L31.9595 6.14279L30.193 8.05052L28.095 8.69726L26.7959 8.03954L25.2115 9.16188L25.1625 11.5697L22.7166 14.2112L24.3063 16.9098L24.4693 21.1493L22.2271 23.5707L22.2869 25.1252L21.0639 26.4459L19.5719 26.2909L18.0772 27.9052L17.0499 26.954L15.6368 27.0083L13.4083 27.9431L11.4272 26.1086L9.15525 25.9129Z" fill="black" fill-opacity="0.11"/>
</svg>
