<svg width="63" height="48" viewBox="0 0 63 48" fill="none" xmlns="http://www.w3.org/2000/svg">
<path d="M13.4 44.7L12 43.3L10.5 40.2L8.89999 38.6L6.70001 37.7V35.4H8.5L10 33.4L9.39999 31.6H7.10001L5.20001 33.5L2.5 33.6L0.5 33.7L1.60001 30.7L3 29.3V27.8L1.70001 26.5V23.9L1.10001 19.4L2.5 15.9L4.89999 13.1L6.5 12.4L8.29999 13.1L9.29999 12.1V10.2L8.89999 8.79999L10.9 6.79999V0.700012L13.7 1.39999L15.2 2.89999H18.3L21.7 3.39999L24.6 4.89999L28 6.29999L30.1 8.39999L31.8 10.1L34.3 13.6H39.8L42 16.6H44.6L47.6 15.8L49.4 14L51 14.8L51.5 18V20.4L52.5 21.4L51.3 22.6L52.7 24L54.3 22.4L56 20.5L59.2 20.7L59.6 24.9L60.5 26.7L61.2 30.5L60.7 35.9L62.3 38.3L58.1 40.7H55.6L53.9 42L52.2 41L50.5 42.7L49 41.2L46.6 43.6L45.5 46.5L43.8 47.3L42.1 44.8H40.7L39.6 43.1V41.3L37.3 39L36.1 37.8L33.5 37.9L29.8 39.1L26.1 41.9H22L19.5 42.9L17.6 43.6L16.2 42.2L15.3 43.4L13.4 44.7Z" fill="black" fill-opacity="0.11"/>
</svg>
