<svg width="46" height="42" viewBox="0 0 46 42" fill="none" xmlns="http://www.w3.org/2000/svg">
<path d="M26.9 2.89999L26.7 5.10001L27.5 8.10001L30.3 8.5L32 9.39999V10.9L34.6 10.8L37.6 13.7L38 17.2L35.7 19.4L37.4 21L38.3 20.1L40.1 20.8L40.6 23.4L41.8 24.6H43.6L44 26.5L45.5 28L45.6 30.5L44.7 32.5L43.1 33.7H40.6L38.6 35.7L37 37.3V39.6L34.8 40.5L32.5 40.4L30.9 42L30 39.4L28.5 37.9L26.7 39.1L24.1 39L22.8 37.7L19.8 38.5L18.9 40.8L16.6 40.3L15.3 39V37.4L14.1 37L13.2 39.5L11.9 40L10.6 38.7L9.09998 39.3L7.69997 37.9L5.39998 40L2.69997 37.4L2.09998 35.1L2.89998 33V30.7L0.0999756 28.7L1.69997 27.1V25.5L3.79998 24.6L5.49998 26.3L8.09998 25.9L9.89998 22.5L8.79998 18L11.8 15L12.9 12.3L11.1 9.60001L10.9 7.89999L13.9 4.89999L14.8 1.89999H18.4L20.2 0.299988L22.1 0.700012L22.5 2.10001L24.4 3.20001H26.9" fill="black" fill-opacity="0.11"/>
</svg>
